<?xml version="1.0" encoding="utf-8"?>
<!-- Generator: Adobe Illustrator 21.0.0, SVG Export Plug-In . SVG Version: 6.00 Build 0)  -->
<svg version="1.1" xmlns="http://www.w3.org/2000/svg" xmlns:xlink="http://www.w3.org/1999/xlink" x="0px" y="0px"
	 viewBox="0 0 435 448.5" style="enable-background:new 0 0 435 448.5;" xml:space="preserve">
<style type="text/css">
	.st0{fill:#0072BC;}
	.st1{fill:none;stroke:#000000;stroke-miterlimit:10;}
	.st2{fill:#4EBAF6;}
</style>
<g id="Слой_2_1_">
</g>
<g id="Слой_1">
	<g id="Слой_2">
		
			<image style="overflow:visible;opacity:0.75;" width="548" height="562" xlink:href="BA282349.png"  transform="matrix(1 0 0 1 -54.1185 -54.6022)">
		</image>
		<g>
			<g>
				<g>
					<g>
						<g>
							<g>
								<g>
									<g>
										<g>
											<path class="st0" d="M357.9,301.8c8.4-4.3,17.1-8.2,25.8-11.8c0.1,0,0.2-0.1,0.2-0.1c-1.5-19.5-5.6-47-16.4-77.9
												c-9.1-25.9-20.2-46.4-29.2-61c2.1,13.4,9.2,64.8-12.4,116.6C337,278.6,347.7,290,357.9,301.8z"/>
										</g>
									</g>
									<g>
										<g>
											<path class="st1" d="M357.9,301.8c8.4-4.3,17.1-8.2,25.8-11.8c0.1,0,0.2-0.1,0.2-0.1c-1.5-19.5-5.6-47-16.4-77.9
												c-9.1-25.9-20.2-46.4-29.2-61c2.1,13.4,9.2,64.8-12.4,116.6C337,278.6,347.7,290,357.9,301.8z"/>
										</g>
									</g>
								</g>
								<g>
									<g>
										<g>
											<path class="st0" d="M374.3,305c-3.2,1.5-6.5,3.1-9.7,4.7c6.7,8.1,13.1,16.4,19.2,25c0.6-7,0.9-14.2,0.9-21.6
												c0-3.2,0-7.5-0.2-12.8C381,301.8,377.6,303.4,374.3,305z"/>
										</g>
									</g>
									<g>
										<g>
											<path class="st1" d="M374.3,305c-3.2,1.5-6.5,3.1-9.7,4.7c6.7,8.1,13.1,16.4,19.2,25c0.6-7,0.9-14.2,0.9-21.6
												c0-3.2,0-7.5-0.2-12.8C381,301.8,377.6,303.4,374.3,305z"/>
										</g>
									</g>
								</g>
								<g>
									<g>
										<g>
											<path class="st0" d="M310.7,347.2c-17.9,17.7-31.9,38.9-42.5,61.7c-2.8,6-5.3,12-7.6,18.2c36.4,13.7,69,17.6,91.6,18.6
												c10.3-20.3,24.3-53.5,30-96c-8.2-12.3-17.2-24-26.6-35.3C339.3,323.4,324.1,333.9,310.7,347.2z"/>
										</g>
									</g>
									<g>
										<g>
											<path class="st1" d="M310.7,347.2c-17.9,17.7-31.9,38.9-42.5,61.7c-2.8,6-5.3,12-7.6,18.2c36.4,13.7,69,17.6,91.6,18.6
												c10.3-20.3,24.3-53.5,30-96c-8.2-12.3-17.2-24-26.6-35.3C339.3,323.4,324.1,333.9,310.7,347.2z"/>
										</g>
									</g>
								</g>
								<g>
									<g>
										<g>
											<path class="st0" d="M251.4,423.4c13.2-35.2,33.4-67.7,62.1-92.4c10.9-9.4,22.9-17.4,35.4-24.4c-3-3.4-6-6.8-9-10.1
												c-6-6.5-12.1-12.8-18.4-19.1c-4.5,9.1-9.9,18.2-16.5,27c-23.8,31.9-55.2,50.3-64.2,55.3c-23.1,12.9-44.5,19.1-59.5,22.3
												c15.1,12,35.1,25.5,60.2,37C244.8,420.6,248.1,422.1,251.4,423.4z"/>
										</g>
									</g>
									<g>
										<g>
											<path class="st1" d="M251.4,423.4c13.2-35.2,33.4-67.7,62.1-92.4c10.9-9.4,22.9-17.4,35.4-24.4c-3-3.4-6-6.8-9-10.1
												c-6-6.5-12.1-12.8-18.4-19.1c-4.5,9.1-9.9,18.2-16.5,27c-23.8,31.9-55.2,50.3-64.2,55.3c-23.1,12.9-44.5,19.1-59.5,22.3
												c15.1,12,35.1,25.5,60.2,37C244.8,420.6,248.1,422.1,251.4,423.4z"/>
										</g>
									</g>
								</g>
								<g>
									<g>
										<g>
											<path class="st2" d="M344.6,84c8.7,12.9,17.7,25.6,27.2,38c17-6.3,34.5-11.5,52.2-15.5c1.8-0.4,3.7-0.8,5.5-1.2
												c1.2-9.3,1.8-17.7,2.2-25.1c-22.3-11.3-60.1-27.1-108.8-31.5C329.5,60.8,336.9,72.6,344.6,84z"/>
										</g>
									</g>
									<g>
										<g>
											<path class="st1" d="M344.6,84c8.7,12.9,17.7,25.6,27.2,38c17-6.3,34.5-11.5,52.2-15.5c1.8-0.4,3.7-0.8,5.5-1.2
												c1.2-9.3,1.8-17.7,2.2-25.1c-22.3-11.3-60.1-27.1-108.8-31.5C329.5,60.8,336.9,72.6,344.6,84z"/>
										</g>
									</g>
								</g>
								<g>
									<g>
										<g>
											<path class="st2" d="M329.6,79.4c-6.6-10.2-12.8-20.7-18.5-31.5c-3.9-0.2-8-0.3-12-0.3c-14.9-0.1-54.2,0.8-101.1,17.3
												c-25.9,9.1-46.4,20.2-61,29.2c16.6-2.6,91.7-12.9,153.4,33.3c8.9,6.6,16.7,13.9,23.5,21c15.5-8.6,31.6-16.2,48.1-22.7
												C350.6,110.7,339.7,95.1,329.6,79.4z"/>
										</g>
									</g>
									<g>
										<g>
											<path class="st1" d="M329.6,79.4c-6.6-10.2-12.8-20.7-18.5-31.5c-3.9-0.2-8-0.3-12-0.3c-14.9-0.1-54.2,0.8-101.1,17.3
												c-25.9,9.1-46.4,20.2-61,29.2c16.6-2.6,91.7-12.9,153.4,33.3c8.9,6.6,16.7,13.9,23.5,21c15.5-8.6,31.6-16.2,48.1-22.7
												C350.6,110.7,339.7,95.1,329.6,79.4z"/>
										</g>
									</g>
								</g>
								<g>
									<g>
										<g>
											<path class="st2" d="M413.8,169.7c7.1-19.4,11.5-37.6,14.1-53.8c-5,1.1-9.9,2.3-14.8,3.6c-11.8,3.1-23.5,6.8-34.9,10.9
												C389.4,144.1,401.1,157.4,413.8,169.7z"/>
										</g>
									</g>
									<g>
										<g>
											<path class="st1" d="M413.8,169.7c7.1-19.4,11.5-37.6,14.1-53.8c-5,1.1-9.9,2.3-14.8,3.6c-11.8,3.1-23.5,6.8-34.9,10.9
												C389.4,144.1,401.1,157.4,413.8,169.7z"/>
										</g>
									</g>
								</g>
								<g>
									<g>
										<g>
											<path class="st2" d="M384.3,153.3c-5.4-6.3-10.7-12.7-15.8-19.2c-16.3,6.4-32.1,13.9-47.5,22.3
												c13.4,15.6,21.6,29.7,24.7,35.3c12.9,23.1,19.1,44.5,22.3,59.5c12-15.1,25.5-35.1,37-60.2c1.7-3.7,3.3-7.4,4.8-11.1
												C400.9,171.5,392.4,162.6,384.3,153.3z"/>
										</g>
									</g>
									<g>
										<g>
											<path class="st1" d="M384.3,153.3c-5.4-6.3-10.7-12.7-15.8-19.2c-16.3,6.4-32.1,13.9-47.5,22.3
												c13.4,15.6,21.6,29.7,24.7,35.3c12.9,23.1,19.1,44.5,22.3,59.5c12-15.1,25.5-35.1,37-60.2c1.7-3.7,3.3-7.4,4.8-11.1
												C400.9,171.5,392.4,162.6,384.3,153.3z"/>
										</g>
									</g>
								</g>
								<g>
									<g>
										<g>
											<path class="st0" d="M107.3,62.2c10.2-15.8,20.1-31.9,29.3-48.5C113.5,8,93.1,5.9,77.4,5.2C67.9,24,55.2,53.8,48.9,91.8
												c10.3,3.7,20.6,7.6,30.8,11.8C89.1,90,98.3,76.2,107.3,62.2z"/>
										</g>
									</g>
									<g>
										<g>
											<path class="st1" d="M107.3,62.2c10.2-15.8,20.1-31.9,29.3-48.5C113.5,8,93.1,5.9,77.4,5.2C67.9,24,55.2,53.8,48.9,91.8
												c10.3,3.7,20.6,7.6,30.8,11.8C89.1,90,98.3,76.2,107.3,62.2z"/>
										</g>
									</g>
								</g>
								<g>
									<g>
										<g>
											<path class="st0" d="M188.2,31.8c-14.5-6.6-28.5-11.7-41.8-15.5c-11.7,21.3-24.5,42-37.9,62.3
												c-6.4,9.7-12.8,19.4-19.4,28.9c3,1.3,6,2.6,8.9,3.9c13.5,6,26.9,12.4,40,19.3c21-22.2,43.5-35.4,50.9-39.5
												c23.1-12.9,44.5-19.1,59.5-22.3C233.3,56.9,213.3,43.3,188.2,31.8z"/>
										</g>
									</g>
									<g>
										<g>
											<path class="st1" d="M188.2,31.8c-14.5-6.6-28.5-11.7-41.8-15.5c-11.7,21.3-24.5,42-37.9,62.3
												c-6.4,9.7-12.8,19.4-19.4,28.9c3,1.3,6,2.6,8.9,3.9c13.5,6,26.9,12.4,40,19.3c21-22.2,43.5-35.4,50.9-39.5
												c23.1-12.9,44.5-19.1,59.5-22.3C233.3,56.9,213.3,43.3,188.2,31.8z"/>
										</g>
									</g>
								</g>
								<g>
									<g>
										<g>
											<path class="st0" d="M73.8,111.9c-0.6-0.3-1.2-0.5-1.8-0.8c-8.1-3.3-16.3-6.4-24.5-9.4c-1.5,11.4-2.4,23.4-2.5,36.1
												c0,2,0,4.5,0.1,7.4C55.9,135.5,65.2,123.8,73.8,111.9z"/>
										</g>
									</g>
									<g>
										<g>
											<path class="st1" d="M73.8,111.9c-0.6-0.3-1.2-0.5-1.8-0.8c-8.1-3.3-16.3-6.4-24.5-9.4c-1.5,11.4-2.4,23.4-2.5,36.1
												c0,2,0,4.5,0.1,7.4C55.9,135.5,65.2,123.8,73.8,111.9z"/>
										</g>
									</g>
								</g>
								<g>
									<g>
										<g>
											<path class="st0" d="M75.6,126.1c-8.8,11.4-18.8,22.5-30.1,31.3c1.3,19.6,5.2,48.7,16.7,81.5c9.1,25.9,20.2,46.4,29.2,61
												c-2.6-16.6-12.9-91.7,33.3-153.4c2.1-2.8,4.2-5.5,6.4-8.1c-15.7-8.1-31.7-15.6-47.9-22.5
												C80.7,119.3,78.2,122.7,75.6,126.1z"/>
										</g>
									</g>
									<g>
										<g>
											<path class="st1" d="M75.6,126.1c-8.8,11.4-18.8,22.5-30.1,31.3c1.3,19.6,5.2,48.7,16.7,81.5c9.1,25.9,20.2,46.4,29.2,61
												c-2.6-16.6-12.9-91.7,33.3-153.4c2.1-2.8,4.2-5.5,6.4-8.1c-15.7-8.1-31.7-15.6-47.9-22.5
												C80.7,119.3,78.2,122.7,75.6,126.1z"/>
										</g>
									</g>
								</g>
								<g>
									<g>
										<g>
											<path class="st2" d="M31.7,290.3c29.2,12.6,57.6,26.9,81.4,47.3c7.3-11.2,15.1-22.1,23.2-32.8
												c-25.3-22.2-40.2-47.6-44.6-55.5c-12.9-23.1-19.1-44.5-22.3-59.5c-12,15.1-25.5,35.1-37,60.2c-5.5,12-9.9,23.6-13.4,34.8
												C23.3,286.7,27.5,288.5,31.7,290.3z"/>
										</g>
									</g>
									<g>
										<g>
											<path class="st1" d="M31.7,290.3c29.2,12.6,57.6,26.9,81.4,47.3c7.3-11.2,15.1-22.1,23.2-32.8
												c-25.3-22.2-40.2-47.6-44.6-55.5c-12.9-23.1-19.1-44.5-22.3-59.5c-12,15.1-25.5,35.1-37,60.2c-5.5,12-9.9,23.6-13.4,34.8
												C23.3,286.7,27.5,288.5,31.7,290.3z"/>
										</g>
									</g>
								</g>
								<g>
									<g>
										<g>
											<path class="st2" d="M74.9,322.5c-18.8-10.9-38.7-19.6-58.7-28.1C9,320.5,6.5,343.6,5.8,360.9
												c17.4,8.8,44.3,20.4,78.4,27.1c6.4-12.8,13.4-25.4,20.9-37.6c0.9-1.5,1.8-2.9,2.7-4.4C97.7,337.1,86.6,329.3,74.9,322.5z
												"/>
										</g>
									</g>
									<g>
										<g>
											<path class="st1" d="M74.9,322.5c-18.8-10.9-38.7-19.6-58.7-28.1C9,320.5,6.5,343.6,5.8,360.9
												c17.4,8.8,44.3,20.4,78.4,27.1c6.4-12.8,13.4-25.4,20.9-37.6c0.9-1.5,1.8-2.9,2.7-4.4C97.7,337.1,86.6,329.3,74.9,322.5z
												"/>
										</g>
									</g>
								</g>
								<g>
									<g>
										<g>
											<path class="st2" d="M257.1,349.6c-31.1-0.9-73-8.3-110-36c-1-0.7-2-1.5-3-2.3c-8.2,10.8-16,21.9-23.3,33.2
												c6.7,6.4,13,13.4,18.7,21.1c6.5,8.7,11.7,17.8,16.1,27.3c9.4-0.5,21.1-1.7,34.6-4c-3.2-2.3-6.2-4.6-9-6.9
												c15-3.2,36.4-9.4,59.5-22.3C243.9,358,249.8,354.6,257.1,349.6z"/>
										</g>
									</g>
									<g>
										<g>
											<path class="st1" d="M257.1,349.6c-31.1-0.9-73-8.3-110-36c-1-0.7-2-1.5-3-2.3c-8.2,10.8-16,21.9-23.3,33.2
												c6.7,6.4,13,13.4,18.7,21.1c6.5,8.7,11.7,17.8,16.1,27.3c9.4-0.5,21.1-1.7,34.6-4c-3.2-2.3-6.2-4.6-9-6.9
												c15-3.2,36.4-9.4,59.5-22.3C243.9,358,249.8,354.6,257.1,349.6z"/>
										</g>
									</g>
								</g>
								<g>
									<g>
										<g>
											<path class="st2" d="M124.9,363.2c-3-3.5-6.2-6.9-9.5-10.2c-7.4,12-14.4,24.2-20.8,36.8c13.6,2.2,28.2,3.5,43.8,3.6
												c1.8,0,3.9,0,6.3,0C139.4,382.6,132.8,372.5,124.9,363.2z"/>
										</g>
									</g>
									<g>
										<g>
											<path class="st1" d="M124.9,363.2c-3-3.5-6.2-6.9-9.5-10.2c-7.4,12-14.4,24.2-20.8,36.8c13.6,2.2,28.2,3.5,43.8,3.6
												c1.8,0,3.9,0,6.3,0C139.4,382.6,132.8,372.5,124.9,363.2z"/>
										</g>
									</g>
								</g>
							</g>
						</g>
					</g>
				</g>
			</g>
		</g>
	</g>
</g>
</svg>
